PathFileType	4	(X/Y/Z)	 s11c0201.trc
DataRate	CameraRate	NumFrames	NumMarkers	Units	OrigDataRate	OrigDataStartFrame	OrigNumFrames
200	200	6	48	mm	200	1251	2000
Frame#	Time	racr			lacr			c7			jug			rlel			rdr			llel			ldr			s2			lic			ric			lasi			rasi			rpsi			lpsi			rgt			lgt			rth1			rth2			rth3			rth4			rlfc			rmfc			rsh1			rsh2			rsh3			rsh4			rlmal			rcal			rtoe			rmt5			lth1			lth2			lth4			lth3			llfc			lmfc			llmal			lcal			lmt5			lsh1			lsh2			lsh3			lsh4			ltoe			SBIKE			LBIKE			RBIKE			
		X1	Y1	Z1	X2	Y2	Z2	X3	Y3	Z3	X4	Y4	Z4	X5	Y5	Z5	X6	Y6	Z6	X7	Y7	Z7	X8	Y8	Z8	X9	Y9	Z9	X10	Y10	Z10	X11	Y11	Z11	X12	Y12	Z12	X13	Y13	Z13	X14	Y14	Z14	X15	Y15	Z15	X16	Y16	Z16	X17	Y17	Z17	X18	Y18	Z18	X19	Y19	Z19	X20	Y20	Z20	X21	Y21	Z21	X22	Y22	Z22	X23	Y23	Z23	X24	Y24	Z24	X25	Y25	Z25	X26	Y26	Z26	X27	Y27	Z27	X28	Y28	Z28	X29	Y29	Z29	X30	Y30	Z30	X31	Y31	Z31	X32	Y32	Z32	X33	Y33	Z33	X34	Y34	Z34	X35	Y35	Z35	X36	Y36	Z36	X37	Y37	Z37	X38	Y38	Z38	X39	Y39	Z39	X40	Y40	Z40	X41	Y41	Z41	X42	Y42	Z42	X43	Y43	Z43	X44	Y44	Z44	X45	Y45	Z45	X46	Y46	Z46	X47	Y47	Z47	X48	Y48	Z48	
1251	6.2550	512.084047	1333.767386	-75.746863	528.007267	1363.231004	-380.818792	475.673709	1434.513897	-225.884548	464.685015	1250.395279	-241.100722	554.559025	1108.391491	81.958747	763.375944	968.321642	-47.315276	531.834100	1112.999666	-559.436812	783.181558	963.929195	-436.339044	-104.084308	1209.162796	-248.940204	109.707863	1235.220770	-458.930680	119.972073	1207.993600	-46.177400	145.273699	1159.792756	-435.872647	138.024879	1154.081044	-96.962236	-56.018326	1276.661065	-195.028438	-58.194627	1274.421936	-292.601887	92.111350	1079.903098	-39.319606	34.370830	1080.873794	-460.230990	NaN	NaN	NaN	NaN	NaN	NaN	378.545687	961.373763	-77.916339	319.957980	1046.072176	-77.137108	473.395885	905.157370	-100.525894	462.754447	882.738001	-233.930930	370.732654	785.350357	-82.691044	325.107326	710.137587	-97.321696	250.802072	666.116738	-93.939046	345.724036	693.998914	-127.306134	147.617851	583.909785	-99.646051	97.127220	618.466731	-149.841944	246.211414	373.711844	-138.299391	180.933033	413.057474	-71.094252	131.944432	956.728322	-471.344319	193.491145	898.340125	-460.432537	224.854049	916.722930	-453.126486	218.332864	812.483293	-449.471880	287.725046	691.885945	-421.510749	284.395789	680.134866	-294.308981	215.654549	259.574888	-418.525317	169.646784	202.120629	-385.019230	381.034280	203.322889	-441.088103	264.861007	570.199982	-446.312044	276.083186	486.034475	-433.260288	245.137035	403.414459	-433.933797	304.132973	485.608702	-407.113355	462.408490	252.522131	-366.437470	-204.832297	957.549231	-262.438402	1.383102	82.211943	-461.074885	-15.223446	81.049783	-62.578590	
1252	6.2600	511.477872	1332.546271	-73.111354	528.715750	1363.384242	-379.466399	475.700434	1434.009966	-223.873484	464.743108	1249.925472	-239.589089	553.950201	1108.125871	83.867313	763.277148	968.789924	-46.309390	532.957197	1113.728038	-559.305326	783.572927	963.738794	-435.796732	-100.416561	1208.738509	-253.429404	112.480465	1235.084602	-460.927298	118.132881	1208.716321	-46.594846	147.199205	1159.968124	-436.723059	135.703413	1156.082895	-98.390488	-56.259327	1277.463530	-198.018329	-57.198616	1274.789163	-295.957219	90.834404	1083.020796	-39.626484	34.511521	1080.018473	-461.141881	NaN	NaN	NaN	NaN	NaN	NaN	380.163181	968.346470	-77.953175	319.779752	1052.432814	-76.760456	477.332620	914.787057	-100.896261	468.156562	893.310107	-234.082290	376.533062	794.499052	-82.782652	331.224306	719.170979	-97.405316	257.213438	674.624574	-93.773949	351.952666	702.876263	-127.440309	154.507050	591.536627	-99.420532	103.726426	625.862551	-149.334139	254.440357	382.033125	-138.182878	188.899277	421.140397	-70.907345	128.337596	953.750134	-471.994875	188.458765	893.828664	-461.039821	220.260902	911.530047	-453.601789	211.067187	807.344581	-450.213004	278.317000	686.135307	-421.502595	272.998457	674.415771	-293.621466	207.599211	254.043849	-418.062225	161.744025	196.312257	-384.683838	372.978519	196.117490	-441.364925	255.296103	564.653001	-446.378803	266.973880	480.374991	-433.287101	236.222731	397.618983	-433.845144	294.935926	480.141541	-407.138298	454.854208	244.879141	-367.016626	-204.848306	957.506798	-262.640153	1.375879	82.192185	-461.067508	-15.229822	81.066952	-62.596575	
1253	6.2650	510.814176	1331.776162	-70.372255	529.377753	1363.451136	-378.105696	475.661275	1433.645774	-221.829243	464.778377	1249.567941	-237.743755	553.215527	1107.926926	85.531357	762.968923	969.101473	-45.355672	533.946483	1114.404311	-559.296110	783.825439	963.500649	-435.425455	-99.303614	1209.196198	-256.914448	114.847819	1234.667302	-462.386693	116.175241	1209.754103	-46.952989	149.042491	1159.897541	-437.284500	133.558998	1158.464114	-99.785121	-55.567206	1277.868022	-202.280085	-56.513748	1275.009891	-298.787707	89.628661	1086.327248	-39.875737	34.591050	1079.067117	-461.965222	NaN	NaN	NaN	NaN	NaN	NaN	380.934197	976.474336	-77.187013	319.762560	1058.943396	-76.483725	480.764246	924.752512	-100.860538	473.897589	902.834318	-232.867987	382.290154	803.551182	-82.838327	337.420231	728.041187	-97.443277	263.658122	683.018619	-93.691769	358.104362	711.838764	-127.707341	161.661369	598.661645	-99.251052	110.286128	632.452486	-149.235304	263.221680	389.898296	-138.039209	197.292984	428.459777	-70.842355	124.761286	950.994453	-472.751864	183.577466	889.785708	-461.871564	215.756076	906.689957	-454.308598	204.147425	802.845288	-451.012929	269.391730	681.175904	-421.478742	262.442064	669.636359	-293.150660	199.462328	249.222067	-417.631043	153.546240	191.500006	-384.435779	364.841430	189.300830	-441.548527	245.741467	559.562563	-446.688630	257.517790	475.320748	-433.673121	226.752386	392.517102	-434.079826	285.599652	474.998984	-407.604120	447.234864	237.422223	-367.655866	-204.862362	957.528214	-262.827768	1.380946	82.182322	-461.099305	-15.244124	81.058563	-62.607236	
1254	6.2700	510.117522	1330.853163	-67.757939	530.001248	1363.427095	-376.787324	475.574417	1433.256978	-219.810053	464.700456	1249.202172	-236.063488	552.361294	1107.864120	87.013689	762.569171	969.457941	-44.558629	534.904945	1115.082707	-559.384680	784.001053	963.209789	-435.122453	-98.722030	1209.494796	-259.905788	117.045794	1234.150583	-463.329515	114.239482	1210.810367	-47.394699	150.789855	1159.673996	-437.643944	131.619334	1160.331128	-101.184039	-52.989350	1277.372778	-207.745188	-55.765556	1275.354351	-301.564302	88.622108	1089.601312	-39.900681	34.575554	1078.172354	-462.813440	NaN	NaN	NaN	NaN	NaN	NaN	381.965393	984.037083	-77.178054	319.768526	1065.400322	-76.085378	483.735653	934.299025	-100.182697	478.869223	912.937537	-232.806959	387.987251	812.469617	-82.908092	343.681932	736.715138	-97.454622	270.261834	691.135467	-93.664389	363.275917	721.191597	-127.450509	168.960485	605.254946	-99.033775	116.795206	638.341596	-149.287900	272.554278	397.920783	-137.680004	206.248307	435.513405	-70.790450	121.296163	948.502936	-473.657916	178.922968	886.068566	-462.980823	211.423993	902.493893	-455.206084	197.755064	798.769898	-451.850170	260.987626	676.989367	-421.734711	253.191540	665.957016	-292.901869	191.286025	244.897958	-417.334976	145.143396	187.576513	-384.127643	356.245698	183.200323	-441.684369	236.430676	554.962030	-447.080327	248.133012	470.784252	-434.132371	217.259807	388.073161	-434.327679	276.567348	470.299074	-408.396500	439.414812	230.165041	-367.881756	-204.898810	957.514342	-262.951904	1.351105	82.181320	-461.092005	-15.245973	81.068236	-62.621569	
1255	6.2750	509.346888	1330.269613	-65.204482	530.582582	1363.271081	-375.383422	475.402083	1433.020214	-217.851688	464.542357	1248.974066	-234.280907	551.510723	1107.680888	88.283122	762.116405	969.758272	-43.925927	535.697253	1115.723644	-559.527382	784.155344	962.948697	-434.975195	-98.553901	1210.005439	-262.403713	119.355067	1233.520502	-464.160779	112.199247	1212.107192	-47.949012	152.348961	1159.145608	-437.709390	129.745657	1162.317046	-102.221665	-53.731990	1278.114509	-209.542561	-54.968995	1275.648688	-304.306285	87.966386	1092.887683	-39.756622	34.726037	1077.689331	-464.027625	NaN	NaN	NaN	NaN	NaN	NaN	383.733587	992.413822	-74.565481	319.909288	1071.777066	-75.695252	486.501620	943.426900	-99.431213	484.241625	922.707905	-231.947738	393.488452	821.244845	-82.970606	349.996236	745.159759	-97.458394	276.918948	698.705088	-93.724831	370.165787	729.357178	-127.500310	176.233987	611.366645	-98.938946	123.178997	643.679851	-149.298014	282.049629	404.988250	-138.202335	215.594119	442.201711	-70.719190	118.051203	946.486504	-474.673787	174.661021	882.932832	-464.314626	207.386050	898.806624	-456.219705	191.952745	795.303630	-452.844481	253.263839	673.268953	-422.157202	245.392183	662.783409	-292.818285	182.937180	241.230358	-417.057051	136.351335	184.452802	-383.731202	347.330592	177.627665	-441.894551	227.698397	551.023356	-447.567012	239.228446	466.707461	-434.618267	208.045250	384.206310	-434.397968	268.056275	466.147561	-409.263036	431.319890	223.540012	-368.188001	-204.888729	957.567445	-262.847115	1.336049	82.176203	-461.103451	-15.257416	81.075509	-62.621631	
1256	6.2800	508.518807	1329.763988	-62.592105	531.100553	1363.050275	-374.030682	475.157567	1432.871759	-215.998554	464.276365	1248.828223	-232.511607	550.517981	1107.644005	89.329527	761.578451	969.940125	-43.409692	536.454040	1116.357025	-559.619020	784.330527	962.694428	-434.898186	-99.606140	1210.678299	-263.781501	121.339625	1232.455866	-464.287130	110.184398	1213.636281	-48.562644	153.761120	1158.516339	-437.638843	128.021971	1164.412853	-102.877657	-57.589222	1279.898993	-210.443837	-54.485637	1275.905839	-306.458918	87.706962	1096.259345	-39.503821	34.418228	1076.841499	-464.854466	NaN	NaN	NaN	NaN	NaN	NaN	384.845960	999.209247	-75.159311	320.085570	1078.071717	-75.338328	489.038706	953.397734	-100.200033	488.221537	932.590392	-232.494511	398.802079	829.903947	-83.032104	356.227362	753.357328	-97.476090	283.793847	705.938136	-94.008221	377.266237	737.696930	-127.620070	183.143097	616.925282	-98.895914	129.640784	648.400895	-148.874025	292.300905	412.203309	-137.969274	225.325057	448.354057	-70.774764	115.136332	944.929863	-475.810362	170.766325	880.359601	-465.799783	203.761016	895.629279	-457.368725	186.502918	792.375752	-454.177716	246.230023	669.859708	-422.767855	238.021511	660.350743	-293.111875	174.393905	238.101969	-416.675755	127.450412	182.056300	-383.010026	338.093211	172.598690	-442.110893	219.680364	547.915732	-448.456971	230.851871	463.477500	-435.130116	199.170829	381.113341	-434.210529	260.080522	462.693114	-410.102947	422.927569	217.435407	-368.850008	-204.899846	957.589886	-262.841499	1.333381	82.194523	-461.113703	-15.262717	81.089999	-62.632016	
